<svg width="1024" height="1024" viewBox="0 0 1024 1024" xmlns="http://www.w3.org/2000/svg" role="img" aria-label="NARLEY app icon">
<title>NARLEY</title>
<desc>NARLEY app icon: solid hunter green square with a cream house icon and the NARLEY wordmark</desc>
<rect x="0" y="0" width="1024" height="1024" fill="#16402F"/>
<g>
<path d="M372 392 L512 268 L652 392" fill="none" stroke="#FBF7EC" stroke-width="34" stroke-linecap="round" stroke-linejoin="round"/>
<path d="M404 360 V520 H620 V360" fill="none" stroke="#FBF7EC" stroke-width="34" stroke-linecap="round" stroke-linejoin="round"/>
<path d="M470 520 V440 H554 V520" fill="none" stroke="#FBF7EC" stroke-width="34" stroke-linecap="round" stroke-linejoin="round"/>
</g>
<g fill="#FBF7EC">
<g transform="translate(87.0,880.0) scale(0.093663,-0.093663)"><path d="M1155 1242 975 1268V1341H1452V1268L1280 1242V0H1163L336 1078V100L516 73V0H39V73L211 100V1242L39 1268V1341H498L1155 484Z"/></g>
<g transform="translate(233.53,880.0) scale(0.093663,-0.093663)"><path d="M428 73V0H20V73L120 100L597 1352H887L1362 100L1464 73V0H867V73L1022 100L894 447H379L256 100ZM641 1150 420 557H856Z"/></g>
<g transform="translate(380.06,880.0) scale(0.093663,-0.093663)"><path d="M523 568V100L695 73V0H48V73L207 100V1242L35 1268V1341H676Q972 1341 1118.0 1250.0Q1264 1159 1264 966Q1264 678 994 596L1352 100L1497 73V0H1063L689 568ZM952 964Q952 1114 890.0 1172.5Q828 1231 663 1231H523V678H668Q822 678 887.0 742.0Q952 806 952 964Z"/></g>
<g transform="translate(526.58,880.0) scale(0.093663,-0.093663)"><path d="M729 1268 522 1242V106H795Q1008 106 1108 126L1190 405H1280L1242 0H35V73L207 100V1242L36 1268V1341H729Z"/></g>
<g transform="translate(662.53,880.0) scale(0.093663,-0.093663)"><path d="M35 73 207 100V1242L35 1268V1341H1177V1000H1086L1054 1217Q942 1231 730 1231H522V739H873L904 887H993V475H904L873 627H522V110H775Q1033 110 1113 126L1170 374H1261L1242 0H35Z"/></g>
<g transform="translate(798.47,880.0) scale(0.093663,-0.093663)"><path d="M911 528V100L1124 73V0H382V73L595 100V522L187 1242L36 1268V1341H726V1268L546 1242L852 680L1148 1242L984 1268V1341H1440V1268L1298 1242Z"/></g>
</g>
</svg>
